o Frame
v -1 0 1.34
v 1 0 1.34
v 0.95 0.03 1.29
v -0.95 0.03 1.29
v 0.91 0.03 1.25
v -0.91 0.03 1.25
v 0.9 0 1.24
v -0.9 0 1.24
v 1 0 -1.34
v 0.95 0.03 -1.29
v 0.91 0.03 -1.25
v 0.9 0 -1.24
v -1 0 -1.34
v -0.95 0.03 -1.29
v -0.91 0.03 -1.25
v -0.9 0 -1.24
vn 0 0.85749292571254443 0.51449575542752612
vn 0 1 0
vn 0 0.31622776601683816 -0.94868329805051366
vn 0 0.31622776601683822 -0.94868329805051377
vn 0.51449575542752612 0.85749292571254432 0
vn -0.94868329805051377 0.31622776601683822 0
vn -0.94868329805051366 0.31622776601683822 0
vn 0 0.85749292571254443 -0.51449575542752612
vn 0 0.31622776601683816 0.94868329805051366
vn 0 0.31622776601683822 0.94868329805051377
vn -0.51449575542752612 0.85749292571254432 0
vn 0.94868329805051377 0.31622776601683822 0
vn 0.94868329805051366 0.31622776601683822 0
vt 0 1
vt 1 1
vt 0.98 0.98
vt 0.02 0.98
vt 0.96 0.96
vt 0.04 0.96
vt 0.94 0.94
vt 0.06 0.94
vt 1 0
vt 0.98 0.02
vt 0.96 0.04
vt 0.94 0.06
vt 0 0
vt 0.02 0.02
vt 0.04 0.04
vt 0.06 0.06
g Frame
f 1/1/1 2/2/1 3/3/1 4/4/1
f 4/4/2 3/3/2 5/5/2 6/6/2
f 6/6/3 5/5/3 7/7/4 8/8/4
f 2/2/5 9/9/5 10/10/5 3/3/5
f 3/3/2 10/10/2 11/11/2 5/5/2
f 5/5/6 11/11/6 12/12/7 7/7/7
f 9/9/8 13/13/8 14/14/8 10/10/8
f 10/10/2 14/14/2 15/15/2 11/11/2
f 11/11/9 15/15/9 16/16/10 12/12/10
f 13/13/11 1/1/11 4/4/11 14/14/11
f 14/14/2 4/4/2 6/6/2 15/15/2
f 15/15/12 6/6/12 8/8/13 16/16/13
