# Blender v2.80 (sub 75) OBJ File: 'OctagonalButton.blend'
# www.blender.org
mtllib OctagonalButton5.mtl
o Cube.002_Cube.011
v -0.386337 0.424820 0.935902
v 0.945808 0.418161 0.392763
v 0.390500 0.421329 0.948071
v -0.380003 0.425265 -0.977082
v 0.938733 0.420208 -0.405950
v 0.396863 0.422819 -0.966708
v -0.934086 0.425236 -0.420494
v -0.940368 0.423967 0.371861
v -0.509244 0.031893 1.233202
v 0.519417 0.029384 1.220966
v 1.245495 0.028866 0.487686
v 1.245753 0.028959 -0.537913
v 0.513144 0.027934 -1.260812
v -0.515545 0.028322 -1.250905
v -1.243764 0.030963 -0.516166
v -1.243487 0.032989 0.511962
vn 0.0030 1.0000 0.0007
vn -0.0012 -1.0000 0.0010
vn -0.5572 0.6145 0.5586
vn 0.0011 0.5828 -0.8126
vn 0.5643 0.6071 -0.5595
vn 0.7895 0.6138 -0.0022
vn 0.5760 0.5849 0.5711
vn 0.0020 0.5878 0.8090
vn -0.7884 0.6151 -0.0029
vn -0.5730 0.5887 -0.5702
usemtl None
s off
f 2//1 5//1 6//1 4//1 7//1 8//1 1//1 3//1
f 9//2 16//2 15//2 14//2 13//2 12//2 11//2 10//2
f 8//3 16//3 9//3 1//3
f 6//4 13//4 14//4 4//4
f 5//5 12//5 13//5 6//5
f 2//6 11//6 12//6 5//6
f 3//7 10//7 11//7 2//7
f 1//8 9//8 10//8 3//8
f 7//9 15//9 16//9 8//9
f 4//10 14//10 15//10 7//10
