# Blender v2.81 (sub 16) OBJ File: 'PentagonalButton.blend'
# www.blender.org
mtllib PentagonalButton.mtl
o Cube.001_Cube.010
v -0.996184 -0.004404 -1.000235
v 0.999116 -0.004405 -0.998558
v 0.502400 -0.001092 0.181566
v -0.516643 -0.001092 0.188631
v 0.002311 -0.007208 -2.005259
v -0.497570 0.445804 -0.749183
v -0.257820 0.447529 -0.129964
v 0.001659 0.444464 -1.229470
v 0.500080 0.445804 -0.748345
v 0.251697 0.447545 -0.138227
vn 0.0000 -1.0000 0.0028
vn -0.7222 0.6300 0.2855
vn 0.7214 0.6249 0.2985
vn -0.4501 0.7677 -0.4560
vn -0.0000 1.0000 -0.0028
vn 0.4509 0.7677 -0.4553
vn 0.0082 0.5797 0.8148
usemtl Material
s off
f 1//1 5//1 2//1 3//1 4//1
f 4//2 7//2 6//2 1//2
f 3//3 2//3 9//3 10//3
f 5//4 1//4 6//4 8//4
f 10//5 9//5 8//5 6//5 7//5
f 2//6 5//6 8//6 9//6
f 7//7 4//7 3//7 10//7
